<svg width="16" height="13" viewBox="0 0 16 13" fill="none" xmlns="http://www.w3.org/2000/svg">
<path d="M5.89712 12.6255C5.73277 12.6255 5.56843 12.565 5.43868 12.4352L0.188306 7.18484C0.0676593 7.06276 0 6.89805 0 6.72641C0 6.55477 0.0676593 6.39006 0.188306 6.26797L5.43868 1.0176C5.68952 0.766757 6.10471 0.766757 6.35555 1.0176C6.60639 1.26844 6.60639 1.68363 6.35555 1.93447L1.56361 6.72641L6.35555 11.5184C6.60639 11.7692 6.60639 12.1844 6.35555 12.4352C6.23446 12.565 6.06146 12.6255 5.89712 12.6255Z" fill="#101010"/>
<path d="M15.3517 7.37509H0.794236C0.439598 7.37509 0.145508 7.081 0.145508 6.72637C0.145508 6.37173 0.439598 6.07764 0.794236 6.07764H15.3517C15.7063 6.07764 16.0004 6.37173 16.0004 6.72637C16.0004 7.081 15.7063 7.37509 15.3517 7.37509Z" fill="#101010"/>
</svg>
