<svg width="327" height="25" viewBox="0 0 327 25" fill="none" xmlns="http://www.w3.org/2000/svg">
<path d="M34.302 4.648C35.1513 4.648 35.8327 4.90467 36.346 5.418C36.8593 5.922 37.116 6.594 37.116 7.434C37.116 8.25533 36.85 8.918 36.318 9.422C35.7953 9.91667 35.1 10.164 34.232 10.164H32.02V14H30.494V4.648H34.302ZM34.078 8.932C34.5353 8.932 34.904 8.79667 35.184 8.526C35.464 8.25533 35.604 7.90067 35.604 7.462C35.604 7.00467 35.464 6.64067 35.184 6.37C34.904 6.09 34.5353 5.95 34.078 5.95H32.02V8.932H34.078ZM39.9497 12.684H40.9717V14H38.4237V4.648H39.9497V12.684ZM45.0932 7.098C45.9332 7.098 46.6145 7.308 47.1372 7.728C47.6598 8.13867 47.9212 8.68 47.9212 9.352V14H46.3952V12.936C46.0965 13.72 45.4245 14.112 44.3792 14.112C43.7072 14.112 43.1612 13.9533 42.7412 13.636C42.3305 13.3187 42.1252 12.8473 42.1252 12.222C42.1252 11.578 42.3632 11.074 42.8392 10.71C43.3152 10.346 43.9918 10.164 44.8692 10.164H46.3952V9.604C46.3952 9.23067 46.2785 8.94133 46.0452 8.736C45.8212 8.52133 45.5038 8.414 45.0932 8.414C44.7385 8.414 44.4445 8.48867 44.2112 8.638C43.9872 8.78733 43.8612 8.98333 43.8332 9.226L42.3072 9.044C42.3445 8.484 42.6198 8.022 43.1332 7.658C43.6558 7.28467 44.3092 7.098 45.0932 7.098ZM44.8132 13.034C45.2518 13.034 45.6252 12.9267 45.9332 12.712C46.2412 12.4973 46.3952 12.1893 46.3952 11.788V10.962H45.1912C44.7058 10.962 44.3278 11.0553 44.0572 11.242C43.7865 11.4287 43.6512 11.6947 43.6512 12.04C43.6512 12.348 43.7538 12.5907 43.9592 12.768C44.1645 12.9453 44.4492 13.034 44.8132 13.034ZM54.4744 13.608C53.961 13.9253 53.3637 14.084 52.6824 14.084C52.001 14.084 51.4084 13.916 50.9044 13.58C50.4097 13.2347 50.0597 12.7587 49.8544 12.152C49.7144 11.732 49.6444 11.2 49.6444 10.556C49.6444 10.0053 49.7144 9.478 49.8544 8.974C50.0504 8.386 50.4004 7.924 50.9044 7.588C51.4084 7.252 52.001 7.084 52.6824 7.084C53.3637 7.084 53.961 7.25667 54.4744 7.602C54.9877 7.938 55.3284 8.36733 55.4964 8.89C55.5244 8.974 55.5477 9.058 55.5664 9.142C55.585 9.226 55.5944 9.30067 55.5944 9.366C55.6037 9.422 55.6084 9.45467 55.6084 9.464L54.1104 9.688C54.0917 9.56667 54.0684 9.45467 54.0404 9.352C53.975 9.072 53.8164 8.84333 53.5644 8.666C53.3124 8.47933 53.0137 8.386 52.6684 8.386C52.323 8.386 52.029 8.47467 51.7864 8.652C51.553 8.82933 51.399 9.072 51.3244 9.38C51.231 9.62267 51.1844 10.0193 51.1844 10.57C51.1844 11.0833 51.2264 11.48 51.3104 11.76C51.3944 12.0773 51.553 12.3293 51.7864 12.516C52.029 12.6933 52.323 12.782 52.6684 12.782C53.0137 12.782 53.3124 12.6933 53.5644 12.516C53.8164 12.3387 53.975 12.1007 54.0404 11.802L54.0824 11.55L55.5804 11.788C55.5804 11.928 55.5524 12.082 55.4964 12.25C55.3284 12.8287 54.9877 13.2813 54.4744 13.608ZM63.0309 11.2L58.6349 11.214V11.48C58.6349 11.872 58.7795 12.194 59.0689 12.446C59.3582 12.698 59.7082 12.824 60.1189 12.824C60.4735 12.824 60.7862 12.7353 61.0569 12.558C61.3275 12.3713 61.4955 12.138 61.5609 11.858L62.8909 12.124C62.7882 12.684 62.4802 13.1507 61.9669 13.524C61.4535 13.8973 60.8375 14.084 60.1189 14.084C59.3442 14.084 58.6769 13.86 58.1169 13.412C57.5569 12.964 57.2769 12.3387 57.2769 11.536V9.618C57.2769 8.87133 57.5475 8.25533 58.0889 7.77C58.6302 7.28467 59.2975 7.042 60.0909 7.042C60.9122 7.042 61.6075 7.28467 62.1769 7.77C62.7462 8.25533 63.0309 8.87133 63.0309 9.618V11.2ZM60.0909 8.33C59.6989 8.33 59.3582 8.456 59.0689 8.708C58.7795 8.96 58.6349 9.282 58.6349 9.674V10.122L61.6029 10.108V9.674C61.6029 9.27267 61.4535 8.95067 61.1549 8.708C60.8655 8.456 60.5109 8.33 60.0909 8.33ZM67.5391 14.056C66.7178 14.056 66.0504 13.8647 65.5371 13.482C65.0331 13.0993 64.7811 12.6 64.7811 11.984V11.83H66.1951V12.026C66.1951 12.2873 66.3211 12.502 66.5731 12.67C66.8251 12.838 67.1424 12.922 67.5251 12.922C67.8891 12.922 68.1831 12.8473 68.4071 12.698C68.6404 12.5393 68.7571 12.334 68.7571 12.082C68.7571 11.858 68.6498 11.69 68.4351 11.578C68.2204 11.4567 67.8798 11.34 67.4131 11.228C66.9464 11.1067 66.5918 10.9947 66.3491 10.892C65.8544 10.7053 65.4718 10.4813 65.2011 10.22C64.9304 9.95867 64.7951 9.59933 64.7951 9.142C64.7951 8.51667 65.0378 8.022 65.5231 7.658C66.0178 7.28467 66.6664 7.098 67.4691 7.098C68.2811 7.098 68.9344 7.28933 69.4291 7.672C69.9331 8.04533 70.1851 8.54467 70.1851 9.17V9.31H68.7571V9.17C68.7571 8.90867 68.6358 8.694 68.3931 8.526C68.1598 8.358 67.8564 8.274 67.4831 8.274C67.1191 8.274 66.8204 8.35333 66.5871 8.512C66.3631 8.66133 66.2511 8.862 66.2511 9.114C66.2511 9.24467 66.2884 9.35667 66.3631 9.45C66.4471 9.54333 66.5684 9.62267 66.7271 9.688C66.8858 9.75333 67.0444 9.80933 67.2031 9.856C67.3711 9.90267 67.5811 9.95867 67.8331 10.024C68.0944 10.0893 68.3138 10.15 68.4911 10.206C69.0604 10.3927 69.4991 10.626 69.8071 10.906C70.1244 11.1767 70.2831 11.5547 70.2831 12.04C70.2831 12.6747 70.0358 13.1693 69.5411 13.524C69.0464 13.8787 68.3791 14.056 67.5391 14.056Z" fill="#FF4332"/>
<line x1="71.5" y1="24.5" x2="29.5" y2="24.5" stroke="#FF4332"/>
<path d="M150.542 5.76V6.838H147.896V15H146.65V6.838H143.808V5.76H150.542ZM154.971 8.28C155.317 8.28 155.592 8.35 155.797 8.49L155.573 9.666C155.377 9.54467 155.093 9.50267 154.719 9.54C154.337 9.55867 154.001 9.71733 153.711 10.016C153.431 10.3053 153.287 10.674 153.277 11.122V15H152.031V8.252H153.277V9.638C153.669 8.73267 154.234 8.28 154.971 8.28ZM158.642 7.006C158.483 7.174 158.287 7.258 158.054 7.258C157.82 7.258 157.62 7.174 157.452 7.006C157.284 6.838 157.2 6.63267 157.2 6.39C157.2 6.15667 157.279 5.96067 157.438 5.802C157.606 5.64333 157.811 5.564 158.054 5.564C158.287 5.564 158.483 5.64333 158.642 5.802C158.81 5.96067 158.894 6.15667 158.894 6.39C158.894 6.63267 158.81 6.838 158.642 7.006ZM157.396 15V8.252H158.656V15H157.396ZM164.061 8.196C164.798 8.196 165.363 8.38267 165.755 8.756C166.156 9.12933 166.357 9.64267 166.357 10.296V12.984C166.357 13.6467 166.156 14.1693 165.755 14.552C165.353 14.9253 164.793 15.112 164.075 15.112C163.319 15.112 162.745 14.8647 162.353 14.37V17.828H161.107V8.182H162.353V8.938C162.745 8.44333 163.314 8.196 164.061 8.196ZM165.167 12.984V10.296C165.167 9.92267 165.036 9.62867 164.775 9.414C164.513 9.19933 164.173 9.092 163.753 9.092C163.333 9.092 162.992 9.19933 162.731 9.414C162.479 9.62867 162.353 9.92267 162.353 10.296V12.984C162.353 13.376 162.479 13.6793 162.731 13.894C162.992 14.0993 163.337 14.202 163.767 14.202C164.177 14.202 164.513 14.0947 164.775 13.88C165.036 13.6653 165.167 13.3667 165.167 12.984ZM170.886 15.056C170.112 15.056 169.482 14.874 168.996 14.51C168.511 14.1367 168.268 13.6607 168.268 13.082V12.914H169.416V13.11C169.416 13.3993 169.552 13.642 169.822 13.838C170.102 14.0247 170.452 14.118 170.872 14.118C171.274 14.118 171.6 14.0293 171.852 13.852C172.104 13.6653 172.23 13.4273 172.23 13.138C172.23 12.9047 172.132 12.7227 171.936 12.592C171.74 12.4613 171.404 12.3307 170.928 12.2C170.452 12.0693 170.112 11.962 169.906 11.878C169.384 11.682 168.978 11.458 168.688 11.206C168.408 10.954 168.268 10.604 168.268 10.156C168.268 9.568 168.502 9.09667 168.968 8.742C169.435 8.38733 170.051 8.21 170.816 8.21C171.582 8.21 172.202 8.392 172.678 8.756C173.154 9.12 173.392 9.596 173.392 10.184V10.31H172.23V10.184C172.23 9.89467 172.1 9.65667 171.838 9.47C171.577 9.28333 171.241 9.19 170.83 9.19C170.429 9.19 170.102 9.27867 169.85 9.456C169.598 9.624 169.472 9.848 169.472 10.128C169.472 10.268 169.505 10.3893 169.57 10.492C169.645 10.5947 169.762 10.6833 169.92 10.758C170.088 10.8327 170.242 10.8933 170.382 10.94C170.532 10.9867 170.737 11.0473 170.998 11.122C171.269 11.1967 171.479 11.2573 171.628 11.304C172.226 11.4907 172.683 11.7193 173 11.99C173.327 12.2513 173.49 12.6247 173.49 13.11C173.49 13.7073 173.252 14.1833 172.776 14.538C172.3 14.8833 171.67 15.056 170.886 15.056Z" fill="#878787"/>
<path d="M253.92 8.434C253.92 9.106 253.738 9.666 253.374 10.114C253.01 10.562 252.511 10.8513 251.876 10.982L253.794 15H252.464L250.658 11.052H248.796V15H247.55V5.76H251.232C252.044 5.76 252.693 6.00733 253.178 6.502C253.673 6.98733 253.92 7.63133 253.92 8.434ZM248.796 6.838V10.058H251.05C251.535 10.058 251.927 9.91333 252.226 9.624C252.534 9.32533 252.688 8.938 252.688 8.462C252.688 7.97667 252.539 7.58467 252.24 7.286C251.941 6.98733 251.545 6.838 251.05 6.838H248.796ZM260.885 12.13L256.503 12.144V12.606C256.503 13.026 256.657 13.3713 256.965 13.642C257.283 13.9127 257.661 14.048 258.099 14.048C258.482 14.048 258.823 13.95 259.121 13.754C259.42 13.558 259.602 13.306 259.667 12.998L260.759 13.222C260.657 13.7633 260.358 14.2113 259.863 14.566C259.369 14.9113 258.781 15.084 258.099 15.084C257.371 15.084 256.737 14.8693 256.195 14.44C255.663 14.0107 255.397 13.4133 255.397 12.648V10.646C255.397 9.92733 255.654 9.33467 256.167 8.868C256.69 8.40133 257.329 8.168 258.085 8.168C258.879 8.168 259.541 8.40133 260.073 8.868C260.615 9.32533 260.885 9.918 260.885 10.646V12.13ZM258.085 9.218C257.665 9.218 257.297 9.358 256.979 9.638C256.662 9.90867 256.503 10.2587 256.503 10.688V11.234L259.723 11.22V10.688C259.723 10.2493 259.565 9.89467 259.247 9.624C258.93 9.35333 258.543 9.218 258.085 9.218ZM264.266 15L262.04 8.252H263.398L264.938 13.586L266.478 8.252H267.822L265.61 15H264.266ZM270.829 7.006C270.671 7.174 270.475 7.258 270.241 7.258C270.008 7.258 269.807 7.174 269.639 7.006C269.471 6.838 269.387 6.63267 269.387 6.39C269.387 6.15667 269.467 5.96067 269.625 5.802C269.793 5.64333 269.999 5.564 270.241 5.564C270.475 5.564 270.671 5.64333 270.829 5.802C270.997 5.96067 271.081 6.15667 271.081 6.39C271.081 6.63267 270.997 6.838 270.829 7.006ZM269.583 15V8.252H270.843V15H269.583ZM278.604 12.13L274.222 12.144V12.606C274.222 13.026 274.376 13.3713 274.684 13.642C275.001 13.9127 275.379 14.048 275.818 14.048C276.201 14.048 276.541 13.95 276.84 13.754C277.139 13.558 277.321 13.306 277.386 12.998L278.478 13.222C278.375 13.7633 278.077 14.2113 277.582 14.566C277.087 14.9113 276.499 15.084 275.818 15.084C275.09 15.084 274.455 14.8693 273.914 14.44C273.382 14.0107 273.116 13.4133 273.116 12.648V10.646C273.116 9.92733 273.373 9.33467 273.886 8.868C274.409 8.40133 275.048 8.168 275.804 8.168C276.597 8.168 277.26 8.40133 277.792 8.868C278.333 9.32533 278.604 9.918 278.604 10.646V12.13ZM275.804 9.218C275.384 9.218 275.015 9.358 274.698 9.638C274.381 9.90867 274.222 10.2587 274.222 10.688V11.234L277.442 11.22V10.688C277.442 10.2493 277.283 9.89467 276.966 9.624C276.649 9.35333 276.261 9.218 275.804 9.218ZM288.411 8.252H289.755L287.543 15H286.339L284.757 10.03L283.175 15H281.971L279.759 8.252H281.103L282.657 13.586L284.197 8.252H285.331L286.871 13.586L288.411 8.252ZM293.533 15.056C292.758 15.056 292.128 14.874 291.643 14.51C291.158 14.1367 290.915 13.6607 290.915 13.082V12.914H292.063V13.11C292.063 13.3993 292.198 13.642 292.469 13.838C292.749 14.0247 293.099 14.118 293.519 14.118C293.92 14.118 294.247 14.0293 294.499 13.852C294.751 13.6653 294.877 13.4273 294.877 13.138C294.877 12.9047 294.779 12.7227 294.583 12.592C294.387 12.4613 294.051 12.3307 293.575 12.2C293.099 12.0693 292.758 11.962 292.553 11.878C292.03 11.682 291.624 11.458 291.335 11.206C291.055 10.954 290.915 10.604 290.915 10.156C290.915 9.568 291.148 9.09667 291.615 8.742C292.082 8.38733 292.698 8.21 293.463 8.21C294.228 8.21 294.849 8.392 295.325 8.756C295.801 9.12 296.039 9.596 296.039 10.184V10.31H294.877V10.184C294.877 9.89467 294.746 9.65667 294.485 9.47C294.224 9.28333 293.888 9.19 293.477 9.19C293.076 9.19 292.749 9.27867 292.497 9.456C292.245 9.624 292.119 9.848 292.119 10.128C292.119 10.268 292.152 10.3893 292.217 10.492C292.292 10.5947 292.408 10.6833 292.567 10.758C292.735 10.8327 292.889 10.8933 293.029 10.94C293.178 10.9867 293.384 11.0473 293.645 11.122C293.916 11.1967 294.126 11.2573 294.275 11.304C294.872 11.4907 295.33 11.7193 295.647 11.99C295.974 12.2513 296.137 12.6247 296.137 13.11C296.137 13.7073 295.899 14.1833 295.423 14.538C294.947 14.8833 294.317 15.056 293.533 15.056Z" fill="#878787"/>
</svg>
