<svg width="12" height="15" viewBox="0 0 12 15" fill="none" xmlns="http://www.w3.org/2000/svg">
<path d="M5.99802 14.3797C5.01255 14.3778 4.06596 13.9951 3.35616 13.3114C1.46911 11.4948 -0.616239 8.59701 0.170564 5.14915C0.880606 2.02113 3.61203 0.620239 5.99802 0.620239H6.00442C8.39042 0.620239 11.1218 2.02113 11.8319 5.15555C12.6123 8.60341 10.5269 11.4948 8.63989 13.3114C7.93009 13.9951 6.9835 14.3778 5.99802 14.3797ZM5.99802 1.57976C4.13656 1.57976 1.74417 2.57125 1.11089 5.36025C0.420038 8.37313 2.31348 10.9702 4.02782 12.6142C4.5562 13.128 5.26418 13.4155 6.00122 13.4155C6.73827 13.4155 7.44624 13.128 7.97463 12.6142C9.68257 10.9702 11.576 8.37313 10.898 5.36025C10.2583 2.57125 7.85949 1.57976 5.99802 1.57976Z" fill="#878787"/>
<path fill-rule="evenodd" clip-rule="evenodd" d="M5.99606 8.88526C4.63355 8.88526 3.52051 7.77861 3.52051 6.40971C3.52051 5.0408 4.63355 3.94055 5.99606 3.94055C7.35857 3.94055 8.47161 5.04719 8.47161 6.4161C8.47161 7.78501 7.35857 8.88526 5.99606 8.88526ZM4.48002 6.4161C4.48002 5.57813 5.16448 4.90007 5.99606 4.90007C6.82764 4.90007 7.51209 5.57813 7.51209 6.4161C7.51209 7.25408 6.83404 7.93214 5.99606 7.93214C5.15808 7.93214 4.48002 7.25408 4.48002 6.4161Z" fill="#DADADA"/>
</svg>
