<svg width="74" height="20" viewBox="0 0 74 20" fill="none" xmlns="http://www.w3.org/2000/svg">
<path d="M5.27246 3.46094V5.49121H4.21289V3.46094H5.27246ZM5.14258 14.624V16.4561H4.08984V14.624H5.14258ZM6.03125 12.3955C6.03125 12.1357 5.98112 11.9102 5.88086 11.7188C5.78516 11.5273 5.62337 11.3564 5.39551 11.2061C5.1722 11.0557 4.87142 10.9121 4.49316 10.7754C3.90527 10.5612 3.3903 10.3265 2.94824 10.0713C2.50618 9.81152 2.16211 9.49023 1.91602 9.10742C1.67448 8.72461 1.55371 8.24154 1.55371 7.6582C1.55371 7.09766 1.68359 6.6123 1.94336 6.20215C2.20768 5.78743 2.57454 5.46842 3.04395 5.24512C3.51335 5.01725 4.05794 4.90332 4.67773 4.90332C5.16081 4.90332 5.59375 4.97624 5.97656 5.12207C6.36393 5.26335 6.69434 5.4707 6.96777 5.74414C7.24577 6.01758 7.45768 6.35482 7.60352 6.75586C7.75391 7.15234 7.8291 7.60579 7.8291 8.11621H6.02441C6.02441 7.83366 5.99251 7.58301 5.92871 7.36426C5.86491 7.14551 5.77376 6.96094 5.65527 6.81055C5.53678 6.6556 5.39323 6.53939 5.22461 6.46191C5.06055 6.38444 4.8737 6.3457 4.66406 6.3457C4.36328 6.3457 4.11491 6.40267 3.91895 6.5166C3.72754 6.63053 3.58626 6.78548 3.49512 6.98145C3.40853 7.17741 3.36523 7.40299 3.36523 7.6582C3.36523 7.9043 3.41081 8.12077 3.50195 8.30762C3.59766 8.48991 3.75716 8.65625 3.98047 8.80664C4.20833 8.95703 4.52051 9.1097 4.91699 9.26465C5.50944 9.4834 6.02441 9.72493 6.46191 9.98926C6.89941 10.249 7.23893 10.568 7.48047 10.9463C7.72201 11.3245 7.84277 11.8031 7.84277 12.3818C7.84277 12.9743 7.70605 13.4756 7.43262 13.8857C7.16374 14.2959 6.78548 14.6081 6.29785 14.8223C5.81022 15.0365 5.24284 15.1436 4.5957 15.1436C4.18099 15.1436 3.77083 15.0889 3.36523 14.9795C2.95964 14.8701 2.59049 14.6924 2.25781 14.4463C1.92969 14.1956 1.66764 13.8652 1.47168 13.4551C1.27572 13.0404 1.17773 12.5322 1.17773 11.9307H2.98926C2.98926 12.277 3.03483 12.5641 3.12598 12.792C3.21712 13.0199 3.34017 13.2021 3.49512 13.3389C3.65007 13.471 3.82324 13.5645 4.01465 13.6191C4.20605 13.6738 4.39974 13.7012 4.5957 13.7012C4.91471 13.7012 5.17904 13.6465 5.38867 13.5371C5.60286 13.4277 5.76237 13.2751 5.86719 13.0791C5.97656 12.8786 6.03125 12.6507 6.03125 12.3955ZM17.3721 5.01953V15H15.5605V7.13184L13.1611 7.9248V6.46191L17.167 5.01953H17.3721ZM25.3701 5.01953V15H23.5586V7.13184L21.1592 7.9248V6.46191L25.165 5.01953H25.3701ZM35.3096 9.16895V10.8438C35.3096 11.6094 35.2321 12.2633 35.0771 12.8057C34.9222 13.348 34.6989 13.7923 34.4072 14.1387C34.1156 14.4805 33.7669 14.7334 33.3613 14.8975C32.9557 15.057 32.5046 15.1367 32.0078 15.1367C31.6113 15.1367 31.2422 15.0866 30.9004 14.9863C30.5586 14.8815 30.251 14.722 29.9775 14.5078C29.7087 14.2891 29.4762 14.0111 29.2803 13.6738C29.0889 13.3366 28.9408 12.9333 28.8359 12.4639C28.7357 11.9945 28.6855 11.4544 28.6855 10.8438V9.16895C28.6855 8.40332 28.763 7.75163 28.918 7.21387C29.0775 6.67611 29.3031 6.23633 29.5947 5.89453C29.8864 5.55273 30.235 5.30436 30.6406 5.14941C31.0462 4.98991 31.4974 4.91016 31.9941 4.91016C32.3952 4.91016 32.7643 4.96029 33.1016 5.06055C33.4434 5.16081 33.7487 5.31803 34.0176 5.53223C34.291 5.74186 34.5234 6.0153 34.7148 6.35254C34.9062 6.68522 35.0521 7.08626 35.1523 7.55566C35.2572 8.02051 35.3096 8.55827 35.3096 9.16895ZM33.5049 11.0898V8.91602C33.5049 8.5332 33.4821 8.20052 33.4365 7.91797C33.3955 7.63086 33.334 7.38704 33.252 7.18652C33.1699 6.986 33.0674 6.82422 32.9443 6.70117C32.8213 6.57357 32.68 6.48014 32.5205 6.4209C32.361 6.36165 32.1855 6.33203 31.9941 6.33203C31.7572 6.33203 31.5452 6.37988 31.3584 6.47559C31.1715 6.56673 31.0143 6.71257 30.8867 6.91309C30.7591 7.11361 30.6611 7.38021 30.5928 7.71289C30.529 8.04102 30.4971 8.44206 30.4971 8.91602V11.0898C30.4971 11.4727 30.5176 11.8076 30.5586 12.0947C30.6042 12.3818 30.668 12.6279 30.75 12.833C30.8366 13.0381 30.9391 13.2067 31.0576 13.3389C31.1807 13.4665 31.3219 13.5622 31.4814 13.626C31.641 13.6852 31.8164 13.7148 32.0078 13.7148C32.2493 13.7148 32.4613 13.667 32.6436 13.5713C32.8304 13.4756 32.9876 13.3252 33.1152 13.1201C33.2428 12.9105 33.3385 12.6393 33.4023 12.3066C33.4707 11.9694 33.5049 11.5638 33.5049 11.0898Z" fill="#101010"/>
<path d="M41.8731 13.964L43.9971 6.188H44.8251L42.7131 13.964H41.8731ZM51.9638 8.264C52.5718 8.264 53.0478 8.416 53.3918 8.72C53.7358 9.024 53.9078 9.444 53.9078 9.98V14H53.1038V9.98C53.1038 9.628 52.9798 9.356 52.7318 9.164C52.4838 8.964 52.1638 8.864 51.7718 8.864C51.3798 8.864 51.0598 8.964 50.8118 9.164C50.5638 9.356 50.4398 9.628 50.4398 9.98V14H49.5998V8.3H50.4398V8.936C50.7758 8.488 51.2838 8.264 51.9638 8.264ZM56.5081 7.364C56.3241 7.364 56.1681 7.3 56.0401 7.172C55.9201 7.044 55.8601 6.888 55.8601 6.704C55.8601 6.528 55.9201 6.38 56.0401 6.26C56.1681 6.14 56.3241 6.08 56.5081 6.08C56.6841 6.08 56.8361 6.14 56.9641 6.26C57.0921 6.38 57.1561 6.528 57.1561 6.704C57.1561 6.888 57.0921 7.044 56.9641 7.172C56.8361 7.3 56.6841 7.364 56.5081 7.364ZM56.0761 14V8.3H56.9041V14H56.0761ZM62.3842 8.3H63.2242V13.892C63.2242 14.38 63.1362 14.796 62.9602 15.14C62.7922 15.484 62.5522 15.744 62.2402 15.92C61.9282 16.096 61.5802 16.212 61.1962 16.268C60.8202 16.332 60.4002 16.344 59.9362 16.304L59.9602 15.572C60.7202 15.644 61.3122 15.544 61.7362 15.272C62.1682 15.008 62.3842 14.552 62.3842 13.904V13.412C62.0482 13.86 61.5402 14.084 60.8602 14.084C60.2522 14.084 59.7762 13.932 59.4322 13.628C59.0882 13.324 58.9162 12.904 58.9162 12.368V9.992C58.9162 9.456 59.0882 9.036 59.4322 8.732C59.7762 8.42 60.2482 8.264 60.8482 8.264C61.5362 8.264 62.0482 8.492 62.3842 8.948V8.3ZM60.0922 13.196C60.3402 13.388 60.6602 13.484 61.0522 13.484C61.4442 13.484 61.7642 13.388 62.0122 13.196C62.2602 12.996 62.3842 12.72 62.3842 12.368V9.992C62.3842 9.632 62.2602 9.356 62.0122 9.164C61.7722 8.972 61.4522 8.876 61.0522 8.876C60.6602 8.876 60.3402 8.972 60.0922 9.164C59.8442 9.356 59.7202 9.632 59.7202 9.992V12.368C59.7202 12.72 59.8442 12.996 60.0922 13.196ZM67.2688 8.264C67.8768 8.264 68.3528 8.416 68.6968 8.72C69.0408 9.024 69.2128 9.444 69.2128 9.98V14H68.4088V9.98C68.4088 9.628 68.2848 9.356 68.0368 9.164C67.7888 8.964 67.4688 8.864 67.0768 8.864C66.6848 8.864 66.3648 8.964 66.1168 9.164C65.8688 9.356 65.7448 9.628 65.7448 9.98V14H64.9168V6.188H65.7448V8.96C66.0808 8.496 66.5888 8.264 67.2688 8.264ZM73.5768 9.056H72.1728V12.32C72.1728 12.656 72.2488 12.904 72.4008 13.064C72.5528 13.216 72.8008 13.292 73.1448 13.292H73.5408V14C73.4128 14.008 73.2328 14.012 73.0008 14.012C72.4408 14.012 72.0288 13.908 71.7648 13.7C71.5088 13.492 71.3768 13.132 71.3688 12.62V9.056H70.5288V8.432H71.3688V6.92H72.1728V8.432H73.5768V9.056Z" fill="#101010"/>
</svg>
