<svg width="77" height="16" viewBox="0 0 77 16" fill="none" xmlns="http://www.w3.org/2000/svg">
<path d="M4.568 1.184C5.58133 1.184 6.39733 1.488 7.016 2.096C7.63467 2.69333 7.944 3.49333 7.944 4.496C7.944 5.46667 7.624 6.25067 6.984 6.848C6.344 7.43467 5.50667 7.728 4.472 7.728H2.12V12H0.072V1.184H4.568ZM4.248 6.08C4.73867 6.08 5.13333 5.936 5.432 5.648C5.74133 5.36 5.896 4.98667 5.896 4.528C5.896 4.05867 5.74133 3.68 5.432 3.392C5.13333 3.09333 4.73867 2.944 4.248 2.944H2.12V6.08H4.248ZM11.4169 10.24H12.5529V12H9.36888V1.184H11.4169V10.24ZM17.3703 3.968C18.3729 3.968 19.1943 4.21867 19.8343 4.72C20.4743 5.21067 20.7943 5.83467 20.7943 6.592V12H18.7303V10.816C18.3996 11.6907 17.6476 12.128 16.4743 12.128C15.6849 12.128 15.0503 11.9413 14.5703 11.568C14.0903 11.1947 13.8503 10.6453 13.8503 9.92C13.8503 9.16267 14.1223 8.576 14.6663 8.16C15.2209 7.73333 16.0103 7.52 17.0343 7.52H18.7303V6.944C18.7303 6.57067 18.6129 6.27733 18.3783 6.064C18.1436 5.85067 17.8129 5.744 17.3863 5.744C17.0236 5.744 16.7196 5.824 16.4743 5.984C16.2396 6.13333 16.1116 6.336 16.0903 6.592L14.0263 6.32C14.0583 5.648 14.3836 5.088 15.0023 4.64C15.6316 4.192 16.4209 3.968 17.3703 3.968ZM17.0823 10.688C17.5409 10.688 17.9303 10.576 18.2503 10.352C18.5703 10.1173 18.7303 9.792 18.7303 9.376V8.576H17.4823C16.9809 8.576 16.5916 8.672 16.3143 8.864C16.0476 9.056 15.9143 9.328 15.9143 9.68C15.9143 9.97867 16.0156 10.224 16.2183 10.416C16.4209 10.5973 16.7089 10.688 17.0823 10.688ZM26.3093 12.112C25.4986 12.112 24.7946 11.9093 24.1973 11.504C23.5999 11.0987 23.1786 10.5387 22.9333 9.824C22.7519 9.312 22.6613 8.704 22.6613 8C22.6613 7.30667 22.7519 6.704 22.9333 6.192C23.1679 5.49867 23.5839 4.95467 24.1813 4.56C24.7893 4.15467 25.4986 3.952 26.3093 3.952C27.1199 3.952 27.8346 4.16 28.4533 4.576C29.0719 4.98133 29.4773 5.49333 29.6693 6.112C29.7119 6.21867 29.7439 6.32533 29.7653 6.432C29.7866 6.528 29.7973 6.61333 29.7973 6.688C29.8079 6.752 29.8133 6.78933 29.8133 6.8L27.7973 7.12C27.7759 6.97067 27.7493 6.832 27.7173 6.704C27.6426 6.416 27.4719 6.18133 27.2053 6C26.9493 5.81867 26.6453 5.728 26.2933 5.728C25.5679 5.728 25.1039 6.05867 24.9013 6.72C24.7946 7.04 24.7413 7.472 24.7413 8.016C24.7413 8.57067 24.7946 9.00267 24.9013 9.312C25.1039 9.99467 25.5679 10.336 26.2933 10.336C26.6453 10.336 26.9493 10.2507 27.2053 10.08C27.4613 9.89867 27.6319 9.64267 27.7173 9.312C27.7386 9.22667 27.7493 9.13067 27.7493 9.024L29.7812 9.36C29.7812 9.53067 29.7439 9.71733 29.6693 9.92C29.4559 10.6133 29.0399 11.152 28.4213 11.536C27.8133 11.92 27.1093 12.112 26.3093 12.112ZM38.4985 8.528H33.4585V8.992C33.4585 9.38667 33.6078 9.72267 33.9065 10C34.2158 10.2667 34.5838 10.4 35.0105 10.4C35.3945 10.4 35.7252 10.304 36.0025 10.112C36.2798 9.92 36.4558 9.67467 36.5305 9.376L38.3225 9.744C38.2052 10.4267 37.8425 10.992 37.2345 11.44C36.6265 11.888 35.8852 12.112 35.0105 12.112C34.0932 12.112 33.2985 11.8453 32.6265 11.312C31.9545 10.768 31.6185 10.0213 31.6185 9.072V6.976C31.6185 6.09067 31.9385 5.36 32.5785 4.784C33.2185 4.19733 34.0238 3.904 34.9945 3.904C35.9758 3.904 36.8025 4.19733 37.4745 4.784C38.1572 5.36 38.4985 6.09067 38.4985 6.976V8.528ZM34.9945 5.632C34.5785 5.632 34.2158 5.76533 33.9065 6.032C33.6078 6.29867 33.4585 6.64 33.4585 7.056V7.424L36.5785 7.408V7.056C36.5785 6.64 36.4238 6.29867 36.1145 6.032C35.8052 5.76533 35.4318 5.632 34.9945 5.632ZM46.1419 11.456C45.5445 11.872 44.7445 12.08 43.7419 12.08C42.7392 12.08 41.9339 11.8507 41.3259 11.392C40.7285 10.9333 40.4299 10.336 40.4299 9.6V9.44H42.3179V9.648C42.3179 9.91467 42.4512 10.1333 42.7179 10.304C42.9845 10.4747 43.3205 10.56 43.7259 10.56C44.0992 10.56 44.3979 10.4853 44.6219 10.336C44.8565 10.1867 44.9739 9.984 44.9739 9.728C44.9739 9.49333 44.8405 9.31733 44.5739 9.2C44.3072 9.08267 43.9072 8.96533 43.3739 8.848C42.8512 8.73067 42.4299 8.59733 42.1099 8.448C41.5872 8.24533 41.1765 7.98933 40.8779 7.68C40.5792 7.37067 40.4299 6.95467 40.4299 6.432C40.4299 5.67467 40.7232 5.07733 41.3099 4.64C41.8965 4.192 42.6699 3.968 43.6299 3.968C44.6112 3.968 45.4005 4.19733 45.9979 4.656C46.5952 5.11467 46.8939 5.72267 46.8939 6.48V6.64H44.9739V6.48C44.9739 6.20267 44.8512 5.984 44.6059 5.824C44.3712 5.65333 44.0565 5.568 43.6619 5.568C43.2992 5.568 42.9952 5.64267 42.7499 5.792C42.5152 5.94133 42.3979 6.13867 42.3979 6.384C42.3979 6.52267 42.4459 6.64533 42.5419 6.752C42.6379 6.848 42.7765 6.928 42.9579 6.992C43.1499 7.056 43.3419 7.11467 43.5339 7.168C43.7365 7.21067 43.9872 7.26933 44.2859 7.344C44.5845 7.408 44.8405 7.47733 45.0539 7.552C45.6939 7.76533 46.1845 8.03733 46.5259 8.368C46.8672 8.688 47.0379 9.12533 47.0379 9.68C47.0379 10.448 46.7392 11.04 46.1419 11.456Z" fill="#101010"/>
<path d="M52.6973 8.02148V7.95312C52.6973 6.95964 52.8089 6.06185 53.0322 5.25977C53.2555 4.45312 53.5404 3.74674 53.8867 3.14062C54.2331 2.53451 54.5977 2.0332 54.9805 1.63672C55.3633 1.23568 55.7165 0.946289 56.04 0.768555L56.3066 1.60254C56.0378 1.80762 55.7643 2.09017 55.4863 2.4502C55.2129 2.81022 54.96 3.25228 54.7275 3.77637C54.4997 4.30046 54.3151 4.90885 54.1738 5.60156C54.0326 6.29427 53.9619 7.07357 53.9619 7.93945V8.03516C53.9619 8.90104 54.0326 9.68262 54.1738 10.3799C54.3151 11.0726 54.4997 11.6833 54.7275 12.2119C54.96 12.7406 55.2129 13.1895 55.4863 13.5586C55.7643 13.9323 56.0378 14.2285 56.3066 14.4473L56.04 15.2129C55.7165 15.0352 55.3633 14.7458 54.9805 14.3447C54.5977 13.9482 54.2331 13.4469 53.8867 12.8408C53.5404 12.2393 53.2555 11.5352 53.0322 10.7285C52.8089 9.92188 52.6973 9.01953 52.6973 8.02148ZM64.1338 8.65039V9.68945H56.9424V8.94434L61.3994 2.04688H62.4316L61.3242 4.04297L58.3779 8.65039H64.1338ZM62.7461 2.04688V12H61.4814V2.04688H62.7461ZM66.8818 7.2627L65.8701 7.00293L66.3691 2.04688H71.4756V3.21582H67.4424L67.1416 5.92285C67.3239 5.81803 67.554 5.72005 67.832 5.62891C68.1146 5.53776 68.4382 5.49219 68.8027 5.49219C69.263 5.49219 69.6755 5.57194 70.04 5.73145C70.4046 5.88639 70.7145 6.1097 70.9697 6.40137C71.2295 6.69303 71.4277 7.04395 71.5645 7.4541C71.7012 7.86426 71.7695 8.32227 71.7695 8.82812C71.7695 9.30664 71.7035 9.74642 71.5713 10.1475C71.4437 10.5485 71.25 10.8994 70.9902 11.2002C70.7305 11.4964 70.4023 11.7266 70.0059 11.8906C69.6139 12.0547 69.1514 12.1367 68.6182 12.1367C68.2171 12.1367 67.8366 12.082 67.4766 11.9727C67.1211 11.8587 66.8021 11.6878 66.5195 11.46C66.2415 11.2275 66.0137 10.9404 65.8359 10.5986C65.6628 10.2523 65.5534 9.84668 65.5078 9.38184H66.7109C66.7656 9.75553 66.875 10.07 67.0391 10.3252C67.2031 10.5804 67.4173 10.7741 67.6816 10.9062C67.9505 11.0339 68.2627 11.0977 68.6182 11.0977C68.9189 11.0977 69.1855 11.0452 69.418 10.9404C69.6504 10.8356 69.8464 10.6852 70.0059 10.4893C70.1654 10.2933 70.2861 10.0563 70.3682 9.77832C70.4548 9.50033 70.498 9.18815 70.498 8.8418C70.498 8.52734 70.4548 8.23568 70.3682 7.9668C70.2816 7.69792 70.1517 7.46322 69.9785 7.2627C69.8099 7.06217 69.6025 6.90723 69.3564 6.79785C69.1104 6.68392 68.8278 6.62695 68.5088 6.62695C68.085 6.62695 67.7637 6.68392 67.5449 6.79785C67.3307 6.91178 67.1097 7.06673 66.8818 7.2627ZM76.2061 7.95312V8.02148C76.2061 9.01953 76.0944 9.92188 75.8711 10.7285C75.6478 11.5352 75.363 12.2393 75.0166 12.8408C74.6702 13.4469 74.3057 13.9482 73.9229 14.3447C73.54 14.7458 73.1868 15.0352 72.8633 15.2129L72.5967 14.4473C72.8656 14.2422 73.1367 13.9551 73.4102 13.5859C73.6836 13.2214 73.9365 12.7702 74.1689 12.2324C74.4014 11.6992 74.5882 11.084 74.7295 10.3867C74.8708 9.6849 74.9414 8.90104 74.9414 8.03516V7.93945C74.9414 7.07357 74.8662 6.29199 74.7158 5.59473C74.5654 4.8929 74.3695 4.27539 74.1279 3.74219C73.891 3.20898 73.6357 2.76009 73.3623 2.39551C73.0934 2.02637 72.8382 1.74154 72.5967 1.54102L72.8633 0.768555C73.1868 0.946289 73.54 1.23568 73.9229 1.63672C74.3057 2.0332 74.6702 2.53451 75.0166 3.14062C75.363 3.74674 75.6478 4.45312 75.8711 5.25977C76.0944 6.06185 76.2061 6.95964 76.2061 7.95312Z" fill="#ADAFAE"/>
</svg>
