<svg width="22" height="22" viewBox="0 0 22 22" fill="none" xmlns="http://www.w3.org/2000/svg">
<path d="M16.79 21.4765H5.21C2.47 21.4765 0.25 19.2465 0.25 16.5065V9.09654C0.25 7.73654 1.09 6.02654 2.17 5.18654L7.56 0.986536C9.18 -0.273464 11.77 -0.333463 13.45 0.846537L19.63 5.17654C20.82 6.00654 21.75 7.78654 21.75 9.23654V16.5165C21.75 19.2465 19.53 21.4765 16.79 21.4765ZM8.48 2.16654L3.09 6.36654C2.38 6.92654 1.75 8.19654 1.75 9.09654V16.5065C1.75 17.4251 2.11421 18.3062 2.7628 18.9567C3.41139 19.6071 4.29143 19.9739 5.21 19.9765H16.79C18.7 19.9765 20.25 18.4265 20.25 16.5165V9.23654C20.25 8.27654 19.56 6.94654 18.77 6.40654L12.59 2.07654C11.45 1.27654 9.57 1.31654 8.48 2.16654Z" fill="#101010"/>
<path d="M12.5 17.4883H9.5C7.43 17.4883 5.75 15.8083 5.75 13.7383V10.7383C5.75 8.66828 7.43 6.98828 9.5 6.98828H12.5C14.57 6.98828 16.25 8.66828 16.25 10.7383V13.7383C16.25 15.8083 14.57 17.4883 12.5 17.4883ZM9.5 8.48828C8.26 8.48828 7.25 9.49828 7.25 10.7383V13.7383C7.25 14.9783 8.26 15.9883 9.5 15.9883H12.5C13.74 15.9883 14.75 14.9783 14.75 13.7383V10.7383C14.75 9.49828 13.74 8.48828 12.5 8.48828H9.5Z" fill="#101010"/>
<path d="M11 17.4883C10.59 17.4883 10.25 17.1483 10.25 16.7383V7.73828C10.25 7.32828 10.59 6.98828 11 6.98828C11.41 6.98828 11.75 7.32828 11.75 7.73828V16.7383C11.75 17.1483 11.41 17.4883 11 17.4883Z" fill="#101010"/>
<path d="M15.5 12.9883H6.5C6.09 12.9883 5.75 12.6483 5.75 12.2383C5.75 11.8283 6.09 11.4883 6.5 11.4883H15.5C15.91 11.4883 16.25 11.8283 16.25 12.2383C16.25 12.6483 15.91 12.9883 15.5 12.9883Z" fill="#101010"/>
</svg>
