<svg width="21" height="21" viewBox="0 0 21 21" fill="none" xmlns="http://www.w3.org/2000/svg">
<path d="M7.82764 10.0553H7.75007C7.6923 10.0456 7.63331 10.0456 7.57553 10.0553C4.76355 9.968 2.64002 7.7572 2.64002 5.03248C2.64002 2.25928 4.8993 0 7.6725 0C10.4457 0 12.705 2.25928 12.705 5.03248C12.6953 7.7572 10.5621 9.968 7.85673 10.0553H7.82764ZM7.6725 1.45447C6.72434 1.45703 5.81575 1.83482 5.14529 2.50528C4.47484 3.17573 4.09705 4.08432 4.09449 5.03248C4.09449 6.97178 5.60715 8.53292 7.53675 8.60079C7.59493 8.5911 7.72098 8.5911 7.84704 8.60079C9.74755 8.51352 11.2408 6.95239 11.2505 5.03248C11.2479 4.08432 10.8702 3.17573 10.1997 2.50528C9.52925 1.83482 8.62066 1.45703 7.6725 1.45447ZM14.9827 10.1813C14.9536 10.1813 14.9245 10.1813 14.8954 10.1716C14.4979 10.2104 14.0906 9.92921 14.0518 9.53166C14.013 9.1341 14.2555 8.77533 14.653 8.72685C14.7694 8.71715 14.8954 8.71715 15.0021 8.71715C16.4178 8.63958 17.5232 7.476 17.5232 6.05061C17.5232 4.57675 16.3305 3.38408 14.8566 3.38408C14.7616 3.38536 14.6672 3.36775 14.5791 3.33227C14.4909 3.29678 14.4106 3.24413 14.343 3.17737C14.2753 3.11062 14.2216 3.03108 14.1849 2.94339C14.1483 2.85569 14.1294 2.76159 14.1294 2.66654C14.1294 2.26898 14.4591 1.9393 14.8566 1.9393C15.9488 1.94186 16.9955 2.37686 17.7678 3.14914C18.5401 3.92143 18.9751 4.96814 18.9776 6.06031C18.9776 8.29051 17.2323 10.0941 15.0118 10.1813H14.9827ZM7.84025 20.6535C5.93974 20.6535 4.02953 20.1687 2.58475 19.1991C1.23693 18.307 0.5 17.0852 0.5 15.7568C0.5 14.4284 1.23693 13.1969 2.58475 12.2952C5.4937 10.3656 10.2062 10.3656 13.0958 12.2952C14.4339 13.1872 15.1805 14.409 15.1805 15.7374C15.1805 17.0658 14.4436 18.2973 13.0958 19.1991C11.6413 20.1687 9.74076 20.6535 7.84025 20.6535ZM3.38956 13.5169C2.45869 14.1375 1.95447 14.9326 1.95447 15.7665C1.95447 16.5907 2.46839 17.3858 3.38956 17.9967C5.80398 19.616 9.87651 19.616 12.2909 17.9967C13.2218 17.3761 13.726 16.581 13.726 15.7471C13.726 14.9229 13.2121 14.1278 12.2909 13.5169C9.87651 11.9073 5.80398 11.9073 3.38956 13.5169ZM16.7281 18.9082C16.3887 18.9082 16.0881 18.6755 16.0202 18.3264C15.9827 18.1376 16.0205 17.9416 16.1256 17.7803C16.2307 17.619 16.3947 17.5053 16.5826 17.4634C17.1935 17.3373 17.7559 17.0949 18.1922 16.7555C18.7449 16.3386 19.0455 15.815 19.0455 15.2623C19.0455 14.7096 18.7449 14.186 18.2019 13.7787C17.7753 13.449 17.242 13.2163 16.6117 13.0709C16.423 13.0278 16.2591 12.9119 16.1555 12.7484C16.052 12.5849 16.0173 12.3872 16.059 12.1982C16.1463 11.8103 16.5341 11.5582 16.9317 11.6455C17.7656 11.8297 18.4928 12.1594 19.0843 12.6151C19.9861 13.2939 20.5 14.2539 20.5 15.2623C20.5 16.2707 19.9764 17.2307 19.0746 17.9191C18.4734 18.3846 17.7171 18.7239 16.8832 18.8888C16.825 18.9082 16.7765 18.9082 16.7281 18.9082Z" fill="#101010"/>
</svg>
