<svg width="208" height="40" viewBox="0 0 208 40" fill="none" xmlns="http://www.w3.org/2000/svg">
<path d="M22.938 12.9965H17.069C14.5198 12.9965 13 14.5162 13 17.0655V22.9274C13 25.4837 14.5198 27.0034 17.069 27.0034H22.9309C25.4802 27.0034 27 25.4837 27 22.9344V17.0655C27.007 14.5162 25.4872 12.9965 22.938 12.9965ZM20.0035 22.7173C18.5047 22.7173 17.2861 21.4987 17.2861 19.9999C17.2861 18.5012 18.5047 17.2826 20.0035 17.2826C21.5022 17.2826 22.7208 18.5012 22.7208 19.9999C22.7208 21.4987 21.5022 22.7173 20.0035 22.7173ZM24.1496 16.4142C24.1145 16.4982 24.0655 16.5752 24.0025 16.6453C23.9324 16.7083 23.8554 16.7573 23.7714 16.7924C23.6439 16.8465 23.5032 16.8614 23.3673 16.8352C23.2313 16.809 23.1062 16.7429 23.008 16.6453C22.945 16.5752 22.8959 16.4982 22.8609 16.4142C22.8249 16.33 22.8059 16.2396 22.8049 16.148C22.8049 16.057 22.8259 15.9659 22.8609 15.8819C22.8959 15.7909 22.945 15.7208 23.008 15.6508C23.1691 15.4897 23.4142 15.4127 23.6383 15.4617C23.6873 15.4687 23.7293 15.4827 23.7714 15.5037C23.8134 15.5177 23.8554 15.5387 23.8974 15.5667C23.9324 15.5878 23.9675 15.6228 24.0025 15.6508C24.0655 15.7208 24.1145 15.7909 24.1496 15.8819C24.1846 15.9659 24.2056 16.057 24.2056 16.148C24.2056 16.2391 24.1846 16.3301 24.1496 16.4142Z" fill="url(#paint0_linear_1_6550)"/>
<rect x="0.5" y="0.5" width="39" height="39" rx="19.5" stroke="#101010"/>
<path d="M78.938 12.9965H73.069C70.5198 12.9965 69 14.5162 69 17.0655V22.9274C69 25.4837 70.5198 27.0034 73.069 27.0034H78.9309C81.4802 27.0034 83 25.4837 83 22.9344V17.0655C83.007 14.5162 81.4872 12.9965 78.938 12.9965ZM76.0035 22.7173C74.5047 22.7173 73.2861 21.4987 73.2861 19.9999C73.2861 18.5012 74.5047 17.2826 76.0035 17.2826C77.5022 17.2826 78.7208 18.5012 78.7208 19.9999C78.7208 21.4987 77.5022 22.7173 76.0035 22.7173ZM80.1496 16.4142C80.1145 16.4982 80.0655 16.5752 80.0025 16.6453C79.9324 16.7083 79.8554 16.7573 79.7714 16.7924C79.6439 16.8465 79.5032 16.8614 79.3673 16.8352C79.2313 16.809 79.1062 16.7429 79.008 16.6453C78.945 16.5752 78.8959 16.4982 78.8609 16.4142C78.8249 16.33 78.8059 16.2396 78.8049 16.148C78.8049 16.057 78.8259 15.9659 78.8609 15.8819C78.8959 15.7909 78.945 15.7208 79.008 15.6508C79.1691 15.4897 79.4142 15.4127 79.6383 15.4617C79.6873 15.4687 79.7293 15.4827 79.7714 15.5037C79.8134 15.5177 79.8554 15.5387 79.8974 15.5667C79.9324 15.5878 79.9675 15.6228 80.0025 15.6508C80.0655 15.7208 80.1145 15.7909 80.1496 15.8819C80.1846 15.9659 80.2056 16.057 80.2056 16.148C80.2056 16.2391 80.1846 16.3301 80.1496 16.4142Z" fill="url(#paint1_linear_1_6550)"/>
<rect x="56.5" y="0.5" width="39" height="39" rx="19.5" stroke="#101010"/>
<path d="M134.938 12.9965H129.069C126.52 12.9965 125 14.5162 125 17.0655V22.9274C125 25.4837 126.52 27.0034 129.069 27.0034H134.931C137.48 27.0034 139 25.4837 139 22.9344V17.0655C139.007 14.5162 137.487 12.9965 134.938 12.9965ZM132.003 22.7173C130.505 22.7173 129.286 21.4987 129.286 19.9999C129.286 18.5012 130.505 17.2826 132.003 17.2826C133.502 17.2826 134.721 18.5012 134.721 19.9999C134.721 21.4987 133.502 22.7173 132.003 22.7173ZM136.15 16.4142C136.115 16.4982 136.066 16.5752 136.002 16.6453C135.932 16.7083 135.855 16.7573 135.771 16.7924C135.644 16.8465 135.503 16.8614 135.367 16.8352C135.231 16.809 135.106 16.7429 135.008 16.6453C134.945 16.5752 134.896 16.4982 134.861 16.4142C134.825 16.33 134.806 16.2396 134.805 16.148C134.805 16.057 134.826 15.9659 134.861 15.8819C134.896 15.7909 134.945 15.7208 135.008 15.6508C135.169 15.4897 135.414 15.4127 135.638 15.4617C135.687 15.4687 135.729 15.4827 135.771 15.5037C135.813 15.5177 135.855 15.5387 135.897 15.5667C135.932 15.5878 135.967 15.6228 136.002 15.6508C136.066 15.7208 136.115 15.7909 136.15 15.8819C136.185 15.9659 136.206 16.057 136.206 16.148C136.206 16.2391 136.185 16.3301 136.15 16.4142Z" fill="url(#paint2_linear_1_6550)"/>
<rect x="112.5" y="0.5" width="39" height="39" rx="19.5" stroke="#101010"/>
<path d="M190.938 12.9965H185.069C182.52 12.9965 181 14.5162 181 17.0655V22.9274C181 25.4837 182.52 27.0034 185.069 27.0034H190.931C193.48 27.0034 195 25.4837 195 22.9344V17.0655C195.007 14.5162 193.487 12.9965 190.938 12.9965ZM188.003 22.7173C186.505 22.7173 185.286 21.4987 185.286 19.9999C185.286 18.5012 186.505 17.2826 188.003 17.2826C189.502 17.2826 190.721 18.5012 190.721 19.9999C190.721 21.4987 189.502 22.7173 188.003 22.7173ZM192.15 16.4142C192.115 16.4982 192.066 16.5752 192.002 16.6453C191.932 16.7083 191.855 16.7573 191.771 16.7924C191.644 16.8465 191.503 16.8614 191.367 16.8352C191.231 16.809 191.106 16.7429 191.008 16.6453C190.945 16.5752 190.896 16.4982 190.861 16.4142C190.825 16.33 190.806 16.2396 190.805 16.148C190.805 16.057 190.826 15.9659 190.861 15.8819C190.896 15.7909 190.945 15.7208 191.008 15.6508C191.169 15.4897 191.414 15.4127 191.638 15.4617C191.687 15.4687 191.729 15.4827 191.771 15.5037C191.813 15.5177 191.855 15.5387 191.897 15.5667C191.932 15.5878 191.967 15.6228 192.002 15.6508C192.066 15.7208 192.115 15.7909 192.15 15.8819C192.185 15.9659 192.206 16.057 192.206 16.148C192.206 16.2391 192.185 16.3301 192.15 16.4142Z" fill="url(#paint3_linear_1_6550)"/>
<rect x="168.5" y="0.5" width="39" height="39" rx="19.5" stroke="#101010"/>
<defs>
<linearGradient id="paint0_linear_1_6550" x1="20" y1="12.9965" x2="20" y2="27.0034" gradientUnits="userSpaceOnUse">
<stop stop-color="#474747"/>
<stop offset="1" stop-color="#101010"/>
</linearGradient>
<linearGradient id="paint1_linear_1_6550" x1="76" y1="12.9965" x2="76" y2="27.0034" gradientUnits="userSpaceOnUse">
<stop stop-color="#474747"/>
<stop offset="1" stop-color="#101010"/>
</linearGradient>
<linearGradient id="paint2_linear_1_6550" x1="132" y1="12.9965" x2="132" y2="27.0034" gradientUnits="userSpaceOnUse">
<stop stop-color="#474747"/>
<stop offset="1" stop-color="#101010"/>
</linearGradient>
<linearGradient id="paint3_linear_1_6550" x1="188" y1="12.9965" x2="188" y2="27.0034" gradientUnits="userSpaceOnUse">
<stop stop-color="#474747"/>
<stop offset="1" stop-color="#101010"/>
</linearGradient>
</defs>
</svg>
