<svg width="36" height="18" viewBox="0 0 36 18" fill="none" xmlns="http://www.w3.org/2000/svg">
<path d="M14.1887 6.51714L10.2215 5.94058L8.4481 2.34527C8.39966 2.24683 8.31998 2.16714 8.22154 2.11871C7.97466 1.99683 7.67466 2.09839 7.55123 2.34527L5.77779 5.94058L1.8106 6.51714C1.70123 6.53277 1.60123 6.58433 1.52466 6.66246C1.4321 6.75759 1.3811 6.88558 1.38286 7.0183C1.38461 7.15102 1.43899 7.27762 1.53404 7.37027L4.40435 10.1687L3.72623 14.1203C3.71032 14.2122 3.7205 14.3067 3.75559 14.3932C3.79068 14.4796 3.84929 14.5545 3.92477 14.6093C4.00025 14.6641 4.08958 14.6967 4.18263 14.7033C4.27568 14.71 4.36873 14.6904 4.45123 14.6468L7.99966 12.7812L11.5481 14.6468C11.645 14.6984 11.7575 14.7156 11.8653 14.6968C12.1372 14.65 12.32 14.3921 12.2731 14.1203L11.595 10.1687L14.4653 7.37027C14.5434 7.29371 14.595 7.19371 14.6106 7.08433C14.6528 6.81089 14.4622 6.55777 14.1887 6.51714V6.51714Z" fill="#FEC30D"/>
<path d="M25.5215 9.95898V11.084H19.3691L19.3223 10.2344L23.002 4.46875H24.1328L22.9082 6.56641L20.793 9.95898H25.5215ZM24.4551 4.46875V13H23.043V4.46875H24.4551ZM26.6055 12.2969C26.6055 12.0781 26.6797 11.8945 26.8281 11.7461C26.9766 11.5938 27.1777 11.5176 27.4316 11.5176C27.6895 11.5176 27.8906 11.5938 28.0352 11.7461C28.1836 11.8945 28.2578 12.0781 28.2578 12.2969C28.2578 12.5156 28.1836 12.6992 28.0352 12.8477C27.8906 12.9961 27.6895 13.0703 27.4316 13.0703C27.1777 13.0703 26.9766 12.9961 26.8281 12.8477C26.6797 12.6992 26.6055 12.5156 26.6055 12.2969ZM30.9414 11.8867H31.0586C31.5977 11.8867 32.0469 11.8164 32.4062 11.6758C32.7695 11.5312 33.0586 11.332 33.2734 11.0781C33.4883 10.8242 33.6426 10.5254 33.7363 10.1816C33.8301 9.83789 33.877 9.46484 33.877 9.0625V7.5918C33.877 7.24414 33.8398 6.93945 33.7656 6.67773C33.6953 6.41211 33.5938 6.19141 33.4609 6.01562C33.332 5.83594 33.1816 5.70117 33.0098 5.61133C32.8418 5.52148 32.6602 5.47656 32.4648 5.47656C32.25 5.47656 32.0566 5.52539 31.8848 5.62305C31.7168 5.7168 31.5742 5.84766 31.457 6.01562C31.3438 6.17969 31.2559 6.37305 31.1934 6.5957C31.1348 6.81445 31.1055 7.04883 31.1055 7.29883C31.1055 7.5332 31.1328 7.75977 31.1875 7.97852C31.2461 8.19336 31.332 8.38477 31.4453 8.55273C31.5586 8.7207 31.7012 8.85352 31.873 8.95117C32.0449 9.04883 32.2461 9.09766 32.4766 9.09766C32.6953 9.09766 32.8965 9.05664 33.0801 8.97461C33.2637 8.88867 33.4238 8.77344 33.5605 8.62891C33.6973 8.48438 33.8047 8.32227 33.8828 8.14258C33.9609 7.96289 34.0039 7.7793 34.0117 7.5918L34.5508 7.75586C34.5508 8.05273 34.4883 8.3457 34.3633 8.63477C34.2422 8.91992 34.0723 9.18164 33.8535 9.41992C33.6387 9.6543 33.3867 9.8418 33.0977 9.98242C32.8125 10.123 32.502 10.1934 32.166 10.1934C31.7598 10.1934 31.4004 10.1172 31.0879 9.96484C30.7793 9.80859 30.5215 9.59766 30.3145 9.33203C30.1113 9.06641 29.959 8.76172 29.8574 8.41797C29.7559 8.07422 29.7051 7.71289 29.7051 7.33398C29.7051 6.92383 29.7676 6.53906 29.8926 6.17969C30.0176 5.82031 30.1992 5.50391 30.4375 5.23047C30.6758 4.95312 30.9648 4.73828 31.3047 4.58594C31.6484 4.42969 32.0371 4.35156 32.4707 4.35156C32.9316 4.35156 33.3359 4.44141 33.6836 4.62109C34.0312 4.80078 34.3242 5.04883 34.5625 5.36523C34.8008 5.68164 34.9805 6.04883 35.1016 6.4668C35.2227 6.88477 35.2832 7.33398 35.2832 7.81445V8.3125C35.2832 8.81641 35.2383 9.30273 35.1484 9.77148C35.0586 10.2363 34.9121 10.668 34.709 11.0664C34.5098 11.4609 34.2461 11.8086 33.918 12.1094C33.5938 12.4062 33.1953 12.6387 32.7227 12.8066C32.2539 12.9707 31.7031 13.0527 31.0703 13.0527H30.9414V11.8867Z" fill="#101010"/>
</svg>
