<svg width="21" height="22" viewBox="0 0 21 22" fill="none" xmlns="http://www.w3.org/2000/svg">
<path d="M7.08512 21.1051C6.86512 21.1051 6.63512 21.0651 6.42512 20.9751C5.95512 20.7751 5.59512 20.3851 5.43512 19.8951L4.99512 18.5751C4.79512 17.9751 4.97512 17.2251 5.41512 16.7751L7.68512 14.4951C7.71512 14.4651 7.75512 14.3551 7.75512 14.3051V11.8351L3.19512 13.8051C2.58512 14.0651 1.96512 14.0351 1.49512 13.7251C1.02512 13.4151 0.745117 12.8551 0.745117 12.2051V10.9151C0.745117 9.93508 1.44512 8.88508 2.33512 8.53508L7.74512 6.19508V3.35508C7.74512 2.14508 8.59512 0.755078 9.67512 0.195078C9.92765 0.0668372 10.2069 0 10.4901 0C10.7733 0 11.0526 0.0668372 11.3051 0.195078C12.3951 0.755078 13.2451 2.13508 13.2451 3.34508V6.18508L18.6851 8.52508C19.5751 8.90508 20.2551 9.92508 20.2551 10.9151V12.2051C20.2551 12.8651 19.9851 13.4151 19.5051 13.7251C19.0251 14.0351 18.4151 14.0651 17.8051 13.8151L13.2451 11.8451V14.3151C13.2451 14.3551 13.2851 14.4551 13.3151 14.4851L15.5951 16.7751C16.0351 17.2151 16.2151 17.9851 16.0151 18.5751L15.5751 19.8951C15.4051 20.3851 15.0451 20.7751 14.5651 20.9651C14.0951 21.1551 13.5751 21.1351 13.1251 20.9151C13.0751 20.8851 13.0251 20.8551 12.9751 20.8151L10.6451 18.8551C10.5651 18.7851 10.4051 18.7951 10.3351 18.8551L8.00512 20.8151C7.96492 20.8541 7.91732 20.8847 7.86512 20.9051C7.62512 21.0451 7.35512 21.1051 7.08512 21.1051ZM8.06512 10.1951C8.29512 10.1951 8.51512 10.2551 8.70512 10.3851C9.05512 10.6151 9.25512 11.0051 9.25512 11.4651V14.3151C9.25512 14.7451 9.04512 15.2551 8.74512 15.5551L6.47512 17.8351C6.43512 17.8851 6.39512 18.0351 6.41512 18.0951L6.85512 19.4251C6.88512 19.5251 6.95512 19.5651 6.99512 19.5851C7.02512 19.5951 7.07512 19.6151 7.13512 19.5951L9.37512 17.7051C10.0051 17.1651 10.9951 17.1651 11.6251 17.7051L13.8551 19.5851C13.9251 19.5951 13.9751 19.5851 14.0051 19.5751C14.0451 19.5551 14.1251 19.5151 14.1551 19.4151L14.5951 18.0951C14.6076 18.004 14.5862 17.9115 14.5351 17.8351L12.2651 15.5551C11.9651 15.2751 11.7451 14.7551 11.7451 14.3151V11.4651C11.7451 11.0151 11.9351 10.6251 12.2751 10.3951C12.6151 10.1651 13.0551 10.1351 13.4751 10.3151L18.3951 12.4351C18.5451 12.4951 18.6451 12.4951 18.6751 12.4751C18.7051 12.4551 18.7451 12.3651 18.7451 12.2051V10.9151C18.7451 10.5351 18.4251 10.0451 18.0851 9.90508L12.5051 7.49508C12.0651 7.30508 11.7551 6.82508 11.7551 6.34508V3.34508C11.7551 2.68508 11.2351 1.83508 10.6351 1.53508C10.5928 1.51534 10.5468 1.5051 10.5001 1.5051C10.4535 1.5051 10.4074 1.51534 10.3651 1.53508C9.78512 1.83508 9.25512 2.70508 9.25512 3.35508V6.35508C9.25512 6.82508 8.94512 7.31508 8.50512 7.50508L2.92512 9.91508C2.57512 10.0551 2.25512 10.5451 2.25512 10.9151V12.2051C2.25512 12.3651 2.29512 12.4551 2.32512 12.4751C2.35512 12.4951 2.45512 12.4951 2.60512 12.4351L7.51512 10.3151C7.69512 10.2351 7.88512 10.1951 8.06512 10.1951Z" fill="#101010"/>
</svg>
