<svg width="6" height="12" viewBox="0 0 6 12" fill="none" xmlns="http://www.w3.org/2000/svg">
<path d="M0.892507 11.1086C1.11936 11.1086 1.34622 11.025 1.52532 10.8459L5.74007 6.63118C5.90661 6.46266 6 6.23529 6 5.99837C6 5.76144 5.90661 5.53407 5.74007 5.36556L1.52532 1.1508C1.17906 0.80455 0.605951 0.80455 0.259697 1.1508C-0.0865574 1.49706 -0.0865574 2.07017 0.259697 2.41642L3.84164 5.99837L0.259697 9.58031C-0.0865574 9.92656 -0.0865574 10.4997 0.259697 10.8459C0.34109 10.9313 0.439415 10.9988 0.548381 11.044C0.657348 11.0893 0.774556 11.1113 0.892507 11.1086Z" fill="#FF4332"/>
</svg>
